<svg width="503" height="291" viewBox="0 0 503 291" fill="none" xmlns="http://www.w3.org/2000/svg">
<g filter="url(#filter0_d_625_2205)">
<path d="M422.91 187.368C417.419 188.533 412.276 189.751 407.234 191.039C406.499 191.226 405.764 191.412 405.007 191.605C402.686 192.194 400.369 192.785 398.052 193.376C396.469 193.778 394.885 194.181 393.301 194.584C389.44 195.565 385.584 196.547 381.729 197.53C382.761 197.836 383.795 198.143 384.828 198.45C385.404 198.62 385.979 198.791 386.572 198.967C388.623 199.567 390.762 200.144 392.905 200.723C424.793 209.711 437.815 221.881 435.682 233.765C432.903 244.981 414.936 255.178 384.023 263.239C382.813 263.72 382.813 263.72 383.06 264.238C384.065 264.936 385.322 265.28 387.402 265.801C388.139 265.988 388.877 266.175 389.637 266.367C390.437 266.566 391.238 266.764 392.062 266.969C392.879 267.175 393.695 267.38 394.536 267.592C397.146 268.249 399.766 268.903 402.387 269.557C404.158 270.001 405.928 270.446 407.698 270.891C412.038 271.982 416.387 273.071 420.743 274.157C431.893 272.809 439.484 269.743 446.752 267.291C447.223 267.133 447.695 266.976 448.18 266.813C455.024 264.51 460.89 262.12 466.239 259.576C467.256 259.093 468.293 258.612 469.332 258.131C498.729 244.006 500.292 226.393 482.256 211.335C470.762 202.221 449.784 194.047 422.91 187.368Z" fill="#72BF01"/>
<path d="M81.5381 187.368C80.328 187.628 79.1192 187.889 77.911 188.15C77.2377 188.295 76.5644 188.44 75.8708 188.59C39.7714 196.598 19.6277 209.465 12.18 221.15C12.0377 221.37 11.8954 221.59 11.7487 221.816C2.30732 237.24 17.432 253.568 53.3614 266.192C53.8292 266.357 54.297 266.523 54.779 266.693C62.45 269.374 71.0432 272.162 81.5381 274.157C94.4128 270.894 107.287 267.631 120.552 264.27C118.773 263.368 117.478 262.861 114.888 262.141C103.825 259.002 94.4883 255.66 86.9567 251.91C86.6136 251.743 86.2705 251.575 85.9169 251.403C74.0429 245.549 68.1307 238.976 67.4498 232.41C67.4065 232.109 67.3632 231.808 67.3185 231.497C66.6942 223.484 73.8228 215.531 89.1242 208.516C89.5028 208.341 89.8814 208.167 90.2714 207.987C98.5473 204.221 108.972 200.949 120.552 197.804C119.061 196.955 117.353 196.377 114.756 195.724C114.019 195.537 113.281 195.35 112.521 195.158C111.726 194.959 110.932 194.76 110.113 194.556C109.298 194.35 108.483 194.144 107.644 193.932C105.043 193.276 102.435 192.622 99.8259 191.968C98.0602 191.523 96.2949 191.078 94.5301 190.633C90.2051 189.543 85.874 188.455 81.5381 187.368Z" fill="#72BF01"/>
<path d="M355.72 204.396C350.228 205.561 345.086 206.779 340.044 208.067C339.309 208.254 338.574 208.441 337.817 208.633C335.496 209.223 333.179 209.813 330.862 210.404C329.278 210.807 327.694 211.209 326.11 211.612C322.25 212.593 318.393 213.575 314.538 214.558C314.978 214.686 315.417 214.814 315.87 214.946C316.45 215.116 317.03 215.286 317.628 215.462C318.202 215.629 318.775 215.797 319.366 215.97C321.823 216.719 323.928 217.513 325.985 218.334C326.611 218.585 326.611 218.585 327.249 218.84C340.068 224.058 343.301 229.987 338.38 235.981C334.491 240.106 326.587 243.733 314.538 246.692C316.029 247.541 317.737 248.119 320.334 248.773C321.072 248.96 321.809 249.146 322.569 249.339C323.761 249.637 323.761 249.637 324.977 249.941C325.792 250.146 326.607 250.352 327.446 250.564C330.047 251.22 332.656 251.874 335.264 252.528C337.03 252.973 338.795 253.418 340.56 253.863C344.885 254.953 349.216 256.042 353.552 257.129C370.998 255.061 383.384 248.329 389.857 243.986C403.317 234.179 401.123 223.395 383.909 213.996C377.01 210.434 366.846 207.162 355.72 204.396Z" fill="#72BF01"/>
<path d="M150.515 204.672C149.31 204.928 148.109 205.185 146.909 205.443C146.24 205.586 145.571 205.729 144.882 205.876C141.934 206.546 139.514 207.295 137.104 208.088C136.343 208.338 136.343 208.338 135.568 208.593C111.27 216.732 103.275 226.564 107.703 236.634C108.356 237.806 109.302 238.953 110.417 240.102C110.597 240.295 110.777 240.489 110.963 240.688C116.732 246.703 130.599 253.62 150.515 257.405C163.747 254.052 176.979 250.698 190.612 247.243C188.467 246.609 186.321 245.974 184.11 245.321C182.395 244.707 180.751 244.1 179.165 243.467C178.748 243.3 178.331 243.134 177.901 242.962C164.348 237.45 161.698 231.266 167.312 224.985C170.742 221.583 178.183 218.368 188.005 215.916C189.529 215.384 189.529 215.384 189.307 214.864C188.262 214.162 186.943 213.805 184.84 213.278C184.081 213.086 183.321 212.893 182.539 212.695C181.715 212.49 180.891 212.286 180.042 212.075C178.781 211.757 178.781 211.757 177.495 211.433C174.808 210.757 172.11 210.083 169.412 209.41C167.589 208.952 165.766 208.494 163.945 208.036C159.476 206.912 154.999 205.792 150.515 204.672Z" fill="#72BF01"/>
<path d="M251.276 218.832C250.376 218.835 249.477 218.837 248.55 218.839C235.353 218.931 226.438 220.187 217.071 222.49C206.583 225.325 204.55 228.169 204.786 231.902C205.316 235.336 211.483 237.717 221.067 240.032C232.596 242.481 245.921 242.816 260.352 242.572C271.52 242.154 281.937 240.472 288.999 238.264C297.745 234.991 300.197 231.637 297.783 227.764C294.507 224.692 287.055 222.006 276.201 220.394C268.217 219.285 260.335 218.802 251.276 218.832Z" fill="#72BF01"/>
</g>
<ellipse cx="264.823" cy="41.8559" rx="17.2099" ry="16.3041" fill="#00312D"/>
<path d="M144.047 236.413H83.3596C70.7809 177.252 74.3017 116.849 86.9827 104.168C110.627 133.254 125.182 150.564 153.105 182.971C146.92 164.209 143.393 152.072 136.801 134.059C163.5 94.2585 181.184 75.1831 235.531 39.8576C235.815 52.0405 239.355 61.014 244.564 67.2949C257.608 68.2953 264.455 70.7504 276.354 78.8063C280.052 78.1756 283.452 76.9353 286.255 75.1831C305.698 63.0286 307.088 42.5749 299.842 28.0824C293.954 16.3072 283.538 10.8725 260.893 10.8726C282.632 -3.62006 304.371 -1.80852 326.11 27.1766C360.482 36.5004 376.694 42.9723 400.384 57.0674C398.785 81.0886 390.484 95.1212 374.116 117.755C378.645 105.98 386.119 81.3683 378.645 78.8063C352.927 78.8063 299.842 109.381 271.324 109.381C230.267 109.381 247.512 162.513 249.118 190.218C249.294 205.049 250.024 221.014 277.197 236.413H211.075C196.59 205.212 201.111 182.971 222.85 144.928C193.449 166.243 183.393 185.145 177.561 231.884C146.426 218.809 132.016 210.293 107.816 189.312C113.481 208.979 121.629 219.269 144.047 236.413Z" fill="#3A7817"/>
<path d="M355.746 139.796C330.499 160.43 318.382 168.761 299 180.068C308.93 202.356 317.177 212.811 339.271 225.83H407C371.377 209.789 354.761 199.375 342.932 173.661C348.473 158.028 351.149 151.372 355.746 139.796Z" fill="#3A7817"/>
<defs>
<filter id="filter0_d_625_2205" x="0.181818" y="185.604" width="502.636" height="104.426" filterUnits="userSpaceOnUse" color-interpolation-filters="sRGB">
<feFlood flood-opacity="0" result="BackgroundImageFix"/>
<feColorMatrix in="SourceAlpha" type="matrix" values="0 0 0 0 0 0 0 0 0 0 0 0 0 0 0 0 0 0 127 0" result="hardAlpha"/>
<feOffset dy="7.05454"/>
<feGaussianBlur stdDeviation="4.40909"/>
<feComposite in2="hardAlpha" operator="out"/>
<feColorMatrix type="matrix" values="0 0 0 0 0.00784314 0 0 0 0 0.188235 0 0 0 0 0.176471 0 0 0 0.4 0"/>
<feBlend mode="normal" in2="BackgroundImageFix" result="effect1_dropShadow_625_2205"/>
<feBlend mode="normal" in="SourceGraphic" in2="effect1_dropShadow_625_2205" result="shape"/>
</filter>
</defs>
</svg>
