<svg width="48" height="35" viewBox="0 0 48 35" fill="none" xmlns="http://www.w3.org/2000/svg">
<path d="M27.4604 5.10498C28.3432 5.10498 28.9749 5.77079 28.9751 6.4917C28.9751 7.21274 28.3434 7.87939 27.4604 7.87939C26.5778 7.87915 25.9468 7.21261 25.9468 6.4917C25.947 5.77092 26.5779 5.10522 27.4604 5.10498Z" stroke="#00312D" stroke-width="1.8"/>
<path d="M2.00095 33.7884H10.5154C7.37009 31.3831 6.22705 29.9395 5.43214 27.1801C8.82743 30.1238 10.8491 31.3185 15.2174 33.153C16.0356 26.5956 17.4464 23.9436 21.5714 20.9532C18.5215 26.2906 17.8871 29.4109 19.9194 33.7884H29.1963C25.3839 31.628 25.2814 29.3881 25.2568 27.3072C25.0315 23.4203 22.6119 15.9659 28.3723 15.9659C32.3733 15.9659 39.8212 11.6763 43.4294 11.6763C44.4779 12.0357 43.4294 15.4887 42.794 17.1408C45.0904 13.9653 46.255 11.9965 46.4793 8.62632C43.1556 6.64878 40.8811 5.74078 36.0587 4.43266C33.0087 0.366057 29.9588 0.111899 26.9088 2.14521C30.0859 2.1452 31.5473 2.90768 32.3733 4.55974C33.39 6.59304 33.195 9.46267 30.4671 11.1679C30.0739 11.4138 29.5968 11.5878 29.0779 11.6763C27.8532 11.8852 26.3954 11.6176 25.2568 10.6938C25.0297 10.5095 24.8153 10.2991 24.6179 10.0612C23.887 9.18003 23.3903 7.92105 23.3506 6.21179C15.7257 11.1679 13.2446 13.8442 9.49873 19.4282C10.4236 21.9555 10.9184 23.6583 11.7862 26.2906C7.86856 21.7438 5.82653 19.3153 2.50928 15.2345C0.730138 17.0137 0.236167 25.4881 2.00095 33.7884Z" stroke="#00312D" stroke-width="1.8"/>
<path d="M40.2168 20.2329C36.6747 23.1278 34.9747 24.2966 32.2554 25.8829C33.6485 29.01 34.8056 30.4769 37.9054 32.3034H47.4077C42.4099 30.0528 40.0787 28.5918 38.419 24.9841C39.1964 22.7907 39.5719 21.8569 40.2168 20.2329Z" stroke="#00312D" stroke-width="1.5"/>
</svg>
