<svg width="653" height="457" viewBox="0 0 653 457" fill="none" xmlns="http://www.w3.org/2000/svg">
<g filter="url(#filter0_d_161_569)">
<path d="M468.172 314.578C462.637 316.27 457.454 318.039 452.372 319.91C451.631 320.182 450.89 320.453 450.127 320.732C447.788 321.589 445.452 322.447 443.117 323.305C441.521 323.89 439.924 324.475 438.327 325.059C434.437 326.485 430.549 327.911 426.664 329.339C427.704 329.784 428.746 330.23 429.788 330.675C430.368 330.923 430.948 331.171 431.545 331.426C433.612 332.298 435.769 333.136 437.928 333.976C470.07 347.033 483.195 364.71 481.045 381.973C478.244 398.265 460.135 413.076 428.976 424.785C427.756 425.485 427.756 425.485 428.005 426.237C429.018 427.25 430.285 427.75 432.382 428.507C433.125 428.778 433.869 429.05 434.635 429.329C435.441 429.618 436.248 429.906 437.079 430.203C437.902 430.502 438.725 430.801 439.573 431.109C442.203 432.063 444.844 433.013 447.486 433.962C449.271 434.608 451.055 435.254 452.839 435.901C457.213 437.485 461.597 439.066 465.987 440.645C477.226 438.686 484.877 434.232 492.203 430.671C492.678 430.442 493.153 430.213 493.643 429.977C500.54 426.632 506.454 423.16 511.845 419.465C512.87 418.762 513.915 418.064 514.963 417.365C544.592 396.849 546.168 371.264 527.989 349.392C516.404 336.153 495.259 324.28 468.172 314.578Z" fill="#D20B0B"/>
<path d="M124.09 314.578C122.871 314.956 121.652 315.335 120.435 315.714C119.756 315.925 119.077 316.136 118.378 316.353C81.9922 327.986 61.6886 346.676 54.1818 363.648C54.0384 363.968 53.8949 364.287 53.7471 364.617C44.2308 387.02 59.4755 410.737 95.6901 429.075C96.1616 429.315 96.6331 429.555 97.1189 429.802C104.851 433.697 113.512 437.747 124.09 440.645C137.067 435.905 150.044 431.166 163.414 426.283C161.621 424.973 160.315 424.236 157.705 423.191C146.554 418.631 137.143 413.777 129.552 408.33C129.206 408.087 128.86 407.843 128.504 407.592C116.536 399.09 110.577 389.541 109.89 380.005C109.847 379.567 109.803 379.13 109.758 378.679C109.129 367.039 116.314 355.487 131.737 345.296C132.118 345.043 132.5 344.79 132.893 344.528C141.235 339.059 151.742 334.306 163.414 329.738C161.911 328.504 160.19 327.665 157.572 326.715C156.829 326.444 156.085 326.173 155.319 325.893C154.518 325.604 153.717 325.316 152.892 325.019C152.071 324.72 151.249 324.421 150.403 324.113C147.782 323.16 145.153 322.21 142.523 321.26C140.744 320.614 138.964 319.968 137.186 319.321C132.826 317.738 128.461 316.157 124.09 314.578Z" fill="#D20B0B"/>
<path d="M400.448 339.312C394.913 341.005 389.73 342.774 384.648 344.645C383.907 344.916 383.166 345.187 382.403 345.467C380.064 346.323 377.728 347.181 375.393 348.039C373.797 348.624 372.2 349.209 370.603 349.794C366.713 351.219 362.825 352.646 358.94 354.073C359.383 354.259 359.826 354.445 360.282 354.637C360.867 354.884 361.452 355.131 362.054 355.386C362.632 355.629 363.211 355.873 363.806 356.124C366.283 357.213 368.405 358.365 370.477 359.559C371.108 359.922 371.108 359.922 371.752 360.293C384.672 367.873 387.931 376.485 382.971 385.191C379.051 391.183 371.084 396.451 358.94 400.75C360.443 401.983 362.164 402.823 364.782 403.772C365.525 404.044 366.268 404.315 367.034 404.595C368.236 405.027 368.236 405.027 369.462 405.469C370.283 405.768 371.104 406.066 371.951 406.374C374.572 407.327 377.201 408.277 379.83 409.228C381.61 409.874 383.39 410.52 385.168 411.166C389.528 412.75 393.893 414.331 398.263 415.91C415.848 412.906 428.332 403.128 434.856 396.82C448.423 382.574 446.212 366.909 428.861 353.257C421.907 348.083 411.663 343.33 400.448 339.312Z" fill="#D20B0B"/>
<path d="M193.614 339.714C192.401 340.086 191.19 340.459 189.981 340.833C189.306 341.04 188.632 341.248 187.937 341.462C184.966 342.436 182.526 343.523 180.097 344.676C179.331 345.038 179.331 345.038 178.549 345.409C154.058 357.23 146 371.513 150.463 386.14C151.121 387.842 152.075 389.509 153.198 391.178C153.38 391.458 153.562 391.739 153.749 392.028C159.564 400.765 173.54 410.813 193.614 416.311C206.952 411.44 220.289 406.569 234.03 401.55C231.868 400.629 229.705 399.707 227.476 398.758C225.748 397.866 224.091 396.985 222.493 396.065C222.072 395.823 221.652 395.581 221.218 395.332C207.557 387.325 204.886 378.343 210.545 369.219C214.002 364.278 221.502 359.607 231.402 356.046C232.938 355.273 232.938 355.273 232.715 354.518C231.661 353.498 230.332 352.98 228.212 352.214C227.447 351.934 226.681 351.655 225.893 351.367C225.062 351.07 224.232 350.773 223.376 350.467C222.105 350.005 222.105 350.005 220.809 349.534C218.101 348.552 215.382 347.574 212.662 346.596C210.824 345.93 208.987 345.265 207.151 344.599C202.647 342.968 198.134 341.339 193.614 339.714Z" fill="#D20B0B"/>
<path d="M295.175 360.282C294.269 360.285 293.362 360.289 292.428 360.292C279.126 360.425 270.141 362.25 260.699 365.594C250.128 369.713 248.078 373.845 248.317 379.266C248.851 384.255 255.066 387.714 264.727 391.076C276.347 394.633 289.778 395.119 304.324 394.766C315.581 394.159 326.079 391.715 333.198 388.507C342.013 383.754 344.485 378.882 342.051 373.255C338.75 368.794 331.239 364.893 320.299 362.551C312.251 360.939 304.306 360.239 295.175 360.282Z" fill="#D20B0B"/>
</g>
<path d="M394.526 295.024C370.018 315.055 358.255 323.141 339.439 334.118C349.079 355.754 357.085 365.904 378.533 378.543H444.282C409.701 362.97 393.571 352.861 382.087 327.898C387.466 312.722 390.064 306.261 394.526 295.024Z" fill="#3A7817"/>
<ellipse cx="313.083" cy="187.699" rx="16.8815" ry="15.993" fill="#00312D"/>
<path d="M135.083 378.544H194.612C172.622 361.727 164.63 351.634 159.072 332.342C182.811 352.923 196.946 361.276 227.487 374.101C233.208 328.255 243.071 309.713 271.912 288.805C250.588 326.122 246.152 347.939 260.361 378.544H325.222C298.567 363.439 297.85 347.779 297.678 333.23C294.124 271.924 379.42 223.945 424.733 223.945C432.065 226.458 424.733 250.6 420.291 262.151C436.346 239.949 444.489 226.184 446.057 202.621C422.819 188.795 406.917 182.446 373.2 173.301C351.877 144.869 330.553 143.092 309.229 157.308C331.441 157.308 341.659 162.639 347.434 174.189C354.542 188.405 353.179 208.468 334.107 220.391C318.778 229.973 285.239 223.945 284.351 185.74C231.041 220.391 213.693 239.102 187.504 278.143C193.971 295.813 197.43 307.718 203.497 326.122C176.107 294.333 161.83 277.354 138.637 248.823C126.198 261.262 122.744 320.512 135.083 378.544Z" fill="#3A7817"/>
<path d="M592.781 206.111C580.992 165.298 554.689 202.789 587.339 208.23" stroke="#00312D" stroke-width="2.72087"/>
<path d="M594.141 207.019C644.477 174.822 619.535 235.893 594.594 210.498" stroke="#00312D" stroke-width="2.72087"/>
<ellipse cx="591.421" cy="210.951" rx="4.98826" ry="6.80217" transform="rotate(-9.51127 591.421 210.951)" fill="#00312D"/>
<path d="M451.867 116.407C453.228 80.1295 506.738 82.397 455.948 118.221" stroke="#00312D" stroke-width="2.72087"/>
<path d="M448.69 115.955C426.017 90.1065 380.216 117.769 445.969 118.675" stroke="#00312D" stroke-width="2.72087"/>
<ellipse cx="451.254" cy="120.11" rx="5.21067" ry="7.13119" transform="rotate(-95.0693 451.254 120.11)" fill="#00312D"/>
<path d="M531.064 45.9556C554.645 83.1408 578.68 52.7578 531.971 42.7812" stroke="#00312D" stroke-width="2.72087"/>
<path d="M524.26 41.4207C473.017 19.6537 524.715 -0.299446 528.342 40.0603" stroke="#00312D" stroke-width="2.72087"/>
<ellipse cx="527.202" cy="44.4076" rx="5.21067" ry="5.85532" transform="rotate(-95.0693 527.202 44.4076)" fill="#00312D"/>
<path d="M308.904 56.464C297.115 15.6508 270.812 53.1412 303.462 58.5828" stroke="#00312D" stroke-width="2.72087"/>
<path d="M310.264 57.3709C360.6 25.1743 335.658 86.2452 310.717 60.8504" stroke="#00312D" stroke-width="2.72087"/>
<ellipse cx="307.544" cy="61.3038" rx="4.98826" ry="6.80217" transform="rotate(-9.51127 307.544 61.3038)" fill="#00312D"/>
<path d="M23.2125 190.694C11.4235 149.88 -14.8793 187.371 17.7702 192.812" stroke="#00312D" stroke-width="2.72087"/>
<path d="M24.5723 191.6C74.9084 159.404 49.967 220.475 25.0257 195.08" stroke="#00312D" stroke-width="2.72087"/>
<ellipse cx="21.8523" cy="195.533" rx="4.98826" ry="6.80217" transform="rotate(-9.51127 21.8523 195.533)" fill="#00312D"/>
<path d="M167.988 28.4323C169.349 -7.84558 222.859 -5.57805 172.07 30.2462" stroke="#00312D" stroke-width="2.72087"/>
<path d="M164.813 27.9795C142.14 2.13139 96.3389 29.7935 162.092 30.7004" stroke="#00312D" stroke-width="2.72087"/>
<ellipse cx="167.375" cy="32.1356" rx="5.21067" ry="7.13119" transform="rotate(-95.0693 167.375 32.1356)" fill="#00312D"/>
<path d="M108.422 145.721C132.003 182.906 156.037 152.523 109.329 142.546" stroke="#00312D" stroke-width="2.72087"/>
<path d="M101.62 141.186C50.3762 119.419 102.074 99.4662 105.701 139.826" stroke="#00312D" stroke-width="2.72087"/>
<ellipse cx="104.559" cy="144.173" rx="5.21067" ry="5.85532" transform="rotate(-95.0693 104.559 144.173)" fill="#00312D"/>
<path d="M468.176 306.11C468.774 304.305 471.785 300.088 475.418 296.9C479.046 293.716 483.268 290.71 487.208 288.733C491.265 286.697 499.556 282.856 509.86 279.817C518.188 277.361 524.371 277.396 538.714 277.387C542.632 277.384 544.65 279.5 547.063 281.005C549.779 282.7 551.008 285.241 551.462 288.547C552.318 294.789 550.718 299.752 548.909 301.262C545.886 303.785 541.657 303.988 535.014 304.146C530.455 304.255 527.146 299.471 524.566 295.394C522.462 292.07 522.902 287.989 522.743 282.851C522.614 278.686 527.11 274.693 531.944 268.798C537.181 262.411 541.621 261.379 545.253 258.957C548.971 256.479 554.01 254.432 560.209 251.099C564.505 248.789 568.83 245.961 572.612 243.539C578.498 239.322 585.155 233.263 588.638 229.939C589.4 229.028 589.998 228.13 590.615 226.298" stroke="#00312D" stroke-width="2.72087" stroke-linecap="round" stroke-dasharray="9.07 9.07"/>
<path d="M521.686 64.8594C521.686 68.1607 522.284 74.8178 523.794 78.5998C525.771 83.5506 529.231 86.6082 533.004 89.9367C539.514 95.6794 544.94 99.3056 551.139 103.391C555.161 106.042 561.555 107.777 568.371 110.652C573.025 112.615 584.193 112.021 590.601 110.969C594.826 110.275 597.253 105.691 599.525 102.058C601.583 98.7683 601.498 94.8071 601.049 91.7869C600.716 89.545 597.879 89.0479 595.471 88.5944C593.979 88.3135 591.866 88.4402 590.038 89.1885C586.326 90.7082 584.873 93.8729 584.27 95.6823C583.667 97.4917 583.359 100.811 584.107 105.486C585.6 114.819 594.514 120.147 614.717 130.727C628.072 134.994 636.243 135.901 641.213 136.355C644.088 136.509 647.68 136.509 651.38 136.509" stroke="#00312D" stroke-width="2.72087" stroke-linecap="round" stroke-dasharray="9.07 9.07"/>
<path d="M455.479 134.695C456.376 135.902 460.594 138.904 465.138 142.092C470.464 145.829 476.32 154.013 479.653 159.015C481.983 162.511 483.884 167.618 486.007 172.62C488.352 178.147 489.036 194.155 487.984 202.549C487.337 207.713 483.304 213.274 476.366 224.139C472.689 229.897 470.298 233.535 468.335 237.168C466.97 241.099 465.763 246.523 464.702 251.071C464.548 252.282 464.548 253.779 464.548 255.321" stroke="#00312D" stroke-width="2.72087" stroke-linecap="round" stroke-dasharray="9.07 9.07"/>
<path d="M304.923 76.6497C303.119 77.5566 298.901 78.1552 283.669 78.1643C277.077 78.1682 273.797 73.04 270.772 69.4076C268.138 66.2442 268.954 61.2496 268.944 46.7791C268.94 39.2517 273.162 34.059 284.771 18.0603C291.282 9.08661 298.557 7.1224 306.851 4.25642C319.407 -0.0824794 332.114 2.87784 336.948 4.53757C344.189 7.02385 347.841 11.3307 351.768 14.3599C357.076 18.4542 361.735 27.6378 366.279 36.7119C369.974 44.09 372.038 54.5562 372.791 59.998C373.831 67.513 375.049 76.5771 375.965 83.1344C376.726 88.5817 378.677 93.8637 380.346 99.1513C381.879 104.009 383.52 108.067 385.484 112.007C387.507 116.068 391.374 120.165 394.698 122.895C396.508 124.102 398.331 125.018 400.14 125.621C401.052 125.925 401.95 126.224 402.875 126.532" stroke="#00312D" stroke-width="2.72087" stroke-linecap="round" stroke-dasharray="9.07 9.07"/>
<path d="M97.2316 160.996C96.3337 162.502 93.9121 165.513 91.9486 169.145C88.1943 176.09 92.0801 190.291 94.5017 195.293C96.4602 199.339 99.9343 202.1 102.814 205.274C105.886 208.66 110.818 209.664 114.6 210.271C122.621 211.56 133.492 211.187 137.877 210.729C141.716 210.328 143.777 205.455 145.146 201.075C145.643 199.484 145.3 197.021 145.001 195.338C144.702 193.656 144.103 192.758 142.897 192.296C140.061 191.208 137.147 192.432 135.188 193.937C132.74 195.818 131.397 198.173 130.943 201.03C130.166 205.923 131.687 209.664 133.347 211.02C136.666 213.731 139.84 216.611 143.473 218.883C146.86 221.002 158.506 221.763 166.147 219.808C171.839 218.352 175.212 210.299 177.189 206.208C179.456 201.519 181.869 195.497 185.637 187.797C195.312 168.029 198.793 163.137 202.275 156.938C204.608 152.787 208.171 150.131 213.753 144.39C219.619 138.357 235.923 132.609 243.233 130.917C249.208 129.535 256.529 129.253 264.234 130.006C269.613 130.531 275.576 133.479 280.419 136.345C284.663 139.22 286.178 141.941 286.631 143.751C286.785 144.662 286.785 145.56 286.785 146.485" stroke="#00312D" stroke-width="2.72087" stroke-linecap="round" stroke-dasharray="9.07 9.07"/>
<path d="M176.136 46.7202C176.136 48.5251 176.735 52.7424 177.946 56.8328C179.263 61.284 181.27 64.8412 188.199 72.2374C193.442 77.8343 200.298 79.9692 208.152 82.6856C213.236 84.4439 221.72 84.8124 227.819 83.91C231.571 83.3549 234.163 79.679 235.991 76.6634C236.979 75.0323 237.202 73.031 237.655 71.2216C238.097 69.4602 237.211 67.5893 235.855 66.0792C233.319 63.2551 228.758 63.3538 222.114 63.1951C216.793 63.068 207.336 69.3578 200.647 72.8587C191.649 77.5683 187.346 82.0734 183.256 84.3498C177.992 87.2794 174.34 90.5443 169.656 92.0635C163.587 94.0317 152.628 94.7889 146.22 93.8865C142.325 93.3379 138.969 90.5625 134.289 86.9483C125.469 80.1368 121.138 76.6679 115.543 73.1852C110.98 70.3455 106.319 70.6094 95.1587 70.75C89.3813 70.8228 86.3657 74.5275 81.9806 76.6407C77.5954 79.3616 72.7614 82.9803 69.129 84.9575C68.2175 85.411 67.3196 86.0096 66.3945 86.6263" stroke="#00312D" stroke-width="2.72087" stroke-linecap="round" stroke-dasharray="9.07 9.07"/>
<path d="M20.1387 215.414C20.1387 219.314 21.9344 230.778 24.9637 238.664C28.3176 247.395 32.5096 250.767 36.5999 252.744C41.1784 254.957 46.1139 255.919 51.8595 256.526C57.7771 257.152 61.8405 259.238 65.6225 260.907C70.0405 262.856 72.1254 267.092 74.547 271.478C76.6454 275.277 78.4741 281.277 78.9412 293.82C79.1676 299.901 75.1728 303.371 72.6016 306.704C70.2043 309.811 65.5046 310.336 56.6029 310.495C53.68 310.547 51.8912 309.139 50.2315 307.783C46.6907 304.89 45.8418 299.779 45.6831 292.383C45.5657 286.912 50.0501 281.041 53.5283 276.502C59.0635 269.278 65.4502 265.333 70.1573 262.281C74.6303 259.381 78.7643 257.442 82.8547 255.932C87.8556 254.086 91.4617 250.495 99.1663 245.212C103.164 242.471 106.281 239.013 109.011 234.628C109.619 233.562 110.218 232.664 110.676 231.753C111.134 230.841 111.433 229.944 111.741 228.111" stroke="#00312D" stroke-width="2.72087" stroke-linecap="round" stroke-dasharray="9.07 9.07"/>
<path d="M491.872 194.181L491.572 194.116L480.312 191.832C480.013 191.767 480.004 191.086 480.285 189.789C480.566 188.491 480.952 186.955 481.441 185.181C481.952 183.306 482.523 181.392 483.155 179.44C483.788 177.487 484.255 175.812 484.558 174.415L484.591 174.265C485.896 174.026 487.308 174.018 488.827 174.243C490.346 174.468 491.893 174.803 493.468 175.249C495.143 175.717 496.757 176.223 498.31 176.769C499.886 177.215 501.422 177.6 502.919 177.925C502.213 180.697 501.464 183.67 500.672 186.842C499.902 189.914 499.203 192.897 498.575 195.791L497.528 195.564C496.33 195.304 495.332 195.088 494.534 194.915C493.857 194.664 492.969 194.419 491.872 194.181ZM497.482 106.843C499.031 100.179 500.741 93.4962 502.611 86.7964L503.06 86.8938C505.698 87.2566 508.757 87.6062 512.237 87.9426C515.816 88.3006 518.916 89.1816 521.538 90.5857C518.569 103.317 515.503 116.497 512.34 130.126C509.298 143.677 506.692 156.904 504.521 169.808C501.862 169.545 498.675 169.064 494.96 168.363C491.268 167.562 487.964 166.898 485.048 166.371L484.898 166.338C486.426 159.773 487.854 153.187 489.182 146.578C490.609 139.992 491.987 133.394 493.315 126.786C494.643 120.177 496.032 113.53 497.482 106.843Z" fill="#D20B0B"/>
<defs>
<filter id="filter0_d_161_569" x="42.0916" y="312.801" width="506.62" height="143.837" filterUnits="userSpaceOnUse" color-interpolation-filters="sRGB">
<feFlood flood-opacity="0" result="BackgroundImageFix"/>
<feColorMatrix in="SourceAlpha" type="matrix" values="0 0 0 0 0 0 0 0 0 0 0 0 0 0 0 0 0 0 127 0" result="hardAlpha"/>
<feOffset dy="7.10799"/>
<feGaussianBlur stdDeviation="4.44249"/>
<feComposite in2="hardAlpha" operator="out"/>
<feColorMatrix type="matrix" values="0 0 0 0 0 0 0 0 0 0 0 0 0 0 0 0 0 0 0.15 0"/>
<feBlend mode="normal" in2="BackgroundImageFix" result="effect1_dropShadow_161_569"/>
<feBlend mode="normal" in="SourceGraphic" in2="effect1_dropShadow_161_569" result="shape"/>
</filter>
</defs>
</svg>
